<svg 
  width="12" 
  height="12" 
  viewBox="0 0 12 12" 
  fill="none" 
  xmlns="http://www.w3.org/2000/svg"
>
  <path 
    d="M7.32422 6L11.3203 2.00391C11.6836 1.64063 11.6836 1.04297 11.3203 0.679687C10.957 0.316406 10.3594 0.316406 9.9961 0.679687L6 4.67578L2.00391 0.679687C1.64063 0.316406 1.04297 0.316406 0.679687 0.679687C0.498047 0.861328 0.404297 1.10156 0.404297 1.3418C0.404297 1.58203 0.498047 1.82227 0.679687 2.00391L4.67578 6L0.679687 9.99609C0.498047 10.1777 0.404297 10.418 0.404297 10.6582C0.404297 10.8984 0.498047 11.1387 0.679687 11.3203C1.04297 11.6836 1.64063 11.6836 2.00391 11.3203L6 7.32422L9.9961 11.3203C10.3594 11.6836 10.957 11.6836 11.3203 11.3203C11.6836 10.957 11.6836 10.3594 11.3203 9.99609L7.32422 6Z" 
    fill="white"
  />
</svg>
