<svg
  width="13"
  height="13"
  viewBox="0 0 13 13"
  fill="none"
  xmlns="http://www.w3.org/2000/svg"
>
  <path
    d="M12.6245 10.1793C12.127 9.68177 10.9324 8.9338 10.3436 8.65289C9.65996 8.3246 9.40953 8.33137 8.92559 8.67997C8.52287 8.97103 8.26228 9.24179 7.79865 9.14026C7.33501 9.04211 6.42128 8.34829 5.53462 7.46494C4.64796 6.57821 3.95758 5.66441 3.85944 5.20073C3.76129 4.73368 4.03203 4.47646 4.31969 4.07371C4.66826 3.58973 4.67841 3.33928 4.34676 2.65561C4.06587 2.06333 3.32135 0.871999 2.82049 0.374482C2.32301 -0.123035 2.21133 -0.0147323 1.93721 0.0834173C1.93721 0.0834173 1.53111 0.245872 1.12839 0.513245C0.630909 0.844923 0.353405 1.12245 0.157121 1.53874C-0.0357785 1.95503 -0.259136 2.73007 0.877956 4.75398C1.79507 6.38868 2.69527 7.6274 4.03203 8.96088L4.0388 8.96765C5.37556 10.3045 6.61079 11.2048 8.24536 12.122C10.2691 13.2592 11.0441 13.0358 11.4604 12.8429C11.8766 12.65 12.1541 12.3724 12.4858 11.8715C12.7531 11.4688 12.9156 11.0626 12.9156 11.0626C13.0137 10.7885 13.1254 10.6768 12.6245 10.1793Z"
    fill="black"
  />
</svg>